<mxfile host="app.diagrams.net" modified="2023-08-18T16:06:46.005Z" agent="Mozilla/5.0 (Windows NT 10.0; Win64; x64) AppleWebKit/537.36 (KHTML, like Gecko) Chrome/116.0.0.0 Safari/537.36" etag="bS0xJb3dZlpO32DWVjbs" version="21.6.8" type="github">
  <diagram name="第 1 页" id="-OHg1J29jSwoIpWFh4oW">
    <mxGraphModel dx="1540" dy="576" grid="0" gridSize="10" guides="1" tooltips="1" connect="1" arrows="1" fold="1" page="0" pageScale="1" pageWidth="827" pageHeight="1169" math="0" shadow="0">
      <root>
        <mxCell id="0" />
        <mxCell id="1" parent="0" />
        <mxCell id="GL-fCUlWUCzp_wdUQC1Z-23" value="" style="rounded=0;whiteSpace=wrap;html=1;fillColor=#f5f5f5;fontColor=#333333;strokeColor=#666666;align=left;" vertex="1" parent="1">
          <mxGeometry x="87" y="614" width="157" height="143" as="geometry" />
        </mxCell>
        <mxCell id="GL-fCUlWUCzp_wdUQC1Z-4" style="rounded=0;orthogonalLoop=1;jettySize=auto;html=1;entryX=0;entryY=0.5;entryDx=0;entryDy=0;" edge="1" parent="1" source="GL-fCUlWUCzp_wdUQC1Z-2" target="GL-fCUlWUCzp_wdUQC1Z-3">
          <mxGeometry relative="1" as="geometry" />
        </mxCell>
        <mxCell id="GL-fCUlWUCzp_wdUQC1Z-2" value="Redis客户端" style="ellipse;whiteSpace=wrap;html=1;aspect=fixed;fillColor=#d5e8d4;strokeColor=#82b366;" vertex="1" parent="1">
          <mxGeometry x="-88" y="211" width="80" height="80" as="geometry" />
        </mxCell>
        <mxCell id="GL-fCUlWUCzp_wdUQC1Z-10" style="edgeStyle=orthogonalEdgeStyle;rounded=0;orthogonalLoop=1;jettySize=auto;html=1;entryX=0.5;entryY=0;entryDx=0;entryDy=0;" edge="1" parent="1" source="GL-fCUlWUCzp_wdUQC1Z-3" target="GL-fCUlWUCzp_wdUQC1Z-9">
          <mxGeometry relative="1" as="geometry" />
        </mxCell>
        <mxCell id="GL-fCUlWUCzp_wdUQC1Z-11" style="edgeStyle=orthogonalEdgeStyle;rounded=0;orthogonalLoop=1;jettySize=auto;html=1;" edge="1" parent="1" source="GL-fCUlWUCzp_wdUQC1Z-3" target="GL-fCUlWUCzp_wdUQC1Z-7">
          <mxGeometry relative="1" as="geometry" />
        </mxCell>
        <mxCell id="GL-fCUlWUCzp_wdUQC1Z-3" value="Redis服务端" style="rounded=1;whiteSpace=wrap;html=1;fillColor=#dae8fc;strokeColor=#6c8ebf;" vertex="1" parent="1">
          <mxGeometry x="93" y="221" width="120" height="60" as="geometry" />
        </mxCell>
        <mxCell id="GL-fCUlWUCzp_wdUQC1Z-5" value="发送写命令" style="text;html=1;align=center;verticalAlign=middle;resizable=0;points=[];autosize=1;strokeColor=none;fillColor=none;" vertex="1" parent="1">
          <mxGeometry x="-1" y="223" width="78" height="26" as="geometry" />
        </mxCell>
        <mxCell id="GL-fCUlWUCzp_wdUQC1Z-7" value="磁盘" style="shape=cylinder3;whiteSpace=wrap;html=1;boundedLbl=1;backgroundOutline=1;size=15;fillColor=#ffe6cc;strokeColor=#d79b00;" vertex="1" parent="1">
          <mxGeometry x="371" y="221" width="89" height="60" as="geometry" />
        </mxCell>
        <mxCell id="GL-fCUlWUCzp_wdUQC1Z-9" value="内存" style="rounded=0;whiteSpace=wrap;html=1;fillColor=#dae8fc;strokeColor=#6c8ebf;" vertex="1" parent="1">
          <mxGeometry x="93" y="338" width="120" height="60" as="geometry" />
        </mxCell>
        <mxCell id="GL-fCUlWUCzp_wdUQC1Z-12" value="1. 执行命令" style="text;html=1;align=center;verticalAlign=middle;resizable=0;points=[];autosize=1;strokeColor=none;fillColor=none;" vertex="1" parent="1">
          <mxGeometry x="152" y="295" width="79" height="26" as="geometry" />
        </mxCell>
        <mxCell id="GL-fCUlWUCzp_wdUQC1Z-13" value="2. 记录命令到日志文件" style="text;html=1;align=center;verticalAlign=middle;resizable=0;points=[];autosize=1;strokeColor=none;fillColor=none;" vertex="1" parent="1">
          <mxGeometry x="218" y="223" width="139" height="26" as="geometry" />
        </mxCell>
        <mxCell id="GL-fCUlWUCzp_wdUQC1Z-16" style="edgeStyle=orthogonalEdgeStyle;rounded=0;orthogonalLoop=1;jettySize=auto;html=1;" edge="1" parent="1" source="GL-fCUlWUCzp_wdUQC1Z-14" target="GL-fCUlWUCzp_wdUQC1Z-15">
          <mxGeometry relative="1" as="geometry" />
        </mxCell>
        <mxCell id="GL-fCUlWUCzp_wdUQC1Z-14" value="Redis客户端" style="ellipse;whiteSpace=wrap;html=1;aspect=fixed;fillColor=#d5e8d4;strokeColor=#82b366;" vertex="1" parent="1">
          <mxGeometry x="-88" y="467" width="80" height="80" as="geometry" />
        </mxCell>
        <mxCell id="GL-fCUlWUCzp_wdUQC1Z-19" style="edgeStyle=orthogonalEdgeStyle;rounded=0;orthogonalLoop=1;jettySize=auto;html=1;entryX=0;entryY=0.5;entryDx=0;entryDy=0;" edge="1" parent="1" source="GL-fCUlWUCzp_wdUQC1Z-15" target="GL-fCUlWUCzp_wdUQC1Z-18">
          <mxGeometry relative="1" as="geometry" />
        </mxCell>
        <mxCell id="GL-fCUlWUCzp_wdUQC1Z-15" value="Redis服务端" style="rounded=1;whiteSpace=wrap;html=1;fillColor=#dae8fc;strokeColor=#6c8ebf;" vertex="1" parent="1">
          <mxGeometry x="93" y="477" width="120" height="60" as="geometry" />
        </mxCell>
        <mxCell id="GL-fCUlWUCzp_wdUQC1Z-17" value="发送命令&lt;br&gt;set name jack" style="text;html=1;align=center;verticalAlign=middle;resizable=0;points=[];autosize=1;strokeColor=none;fillColor=none;" vertex="1" parent="1">
          <mxGeometry x="-8" y="467" width="92" height="41" as="geometry" />
        </mxCell>
        <mxCell id="GL-fCUlWUCzp_wdUQC1Z-18" value="&lt;div style=&quot;font-size: 13px;&quot;&gt;&lt;span style=&quot;background-color: initial;&quot;&gt;&lt;font style=&quot;font-size: 13px;&quot; face=&quot;Tahoma&quot;&gt;*3&lt;/font&gt;&lt;/span&gt;&lt;/div&gt;&lt;div style=&quot;font-size: 13px;&quot;&gt;&lt;span style=&quot;background-color: initial;&quot;&gt;&lt;font style=&quot;font-size: 13px;&quot; face=&quot;Tahoma&quot;&gt;$3&lt;/font&gt;&lt;/span&gt;&lt;/div&gt;&lt;div style=&quot;font-size: 13px;&quot;&gt;&lt;span style=&quot;background-color: initial;&quot;&gt;&lt;font style=&quot;font-size: 13px;&quot; face=&quot;Tahoma&quot;&gt;set&lt;/font&gt;&lt;/span&gt;&lt;/div&gt;&lt;div style=&quot;font-size: 13px;&quot;&gt;&lt;span style=&quot;background-color: initial;&quot;&gt;&lt;font style=&quot;font-size: 13px;&quot; face=&quot;Tahoma&quot;&gt;$4&lt;/font&gt;&lt;/span&gt;&lt;/div&gt;&lt;div style=&quot;font-size: 13px;&quot;&gt;&lt;span style=&quot;background-color: initial;&quot;&gt;&lt;font style=&quot;font-size: 13px;&quot; face=&quot;Tahoma&quot;&gt;name&lt;/font&gt;&lt;/span&gt;&lt;/div&gt;&lt;div style=&quot;font-size: 13px;&quot;&gt;&lt;span style=&quot;background-color: initial;&quot;&gt;&lt;font style=&quot;font-size: 13px;&quot; face=&quot;Tahoma&quot;&gt;$4&lt;/font&gt;&lt;/span&gt;&lt;/div&gt;&lt;div style=&quot;font-size: 13px;&quot;&gt;&lt;span style=&quot;background-color: initial;&quot;&gt;&lt;font style=&quot;font-size: 13px;&quot; face=&quot;Tahoma&quot;&gt;jack&lt;/font&gt;&lt;/span&gt;&lt;/div&gt;" style="rounded=0;whiteSpace=wrap;html=1;align=left;horizontal=1;verticalAlign=top;fillColor=#ffe6cc;strokeColor=#d79b00;" vertex="1" parent="1">
          <mxGeometry x="339" y="445" width="163" height="124" as="geometry" />
        </mxCell>
        <mxCell id="GL-fCUlWUCzp_wdUQC1Z-20" value="记录日志" style="text;html=1;strokeColor=none;fillColor=none;align=center;verticalAlign=middle;whiteSpace=wrap;rounded=0;" vertex="1" parent="1">
          <mxGeometry x="243" y="478" width="60" height="30" as="geometry" />
        </mxCell>
        <mxCell id="GL-fCUlWUCzp_wdUQC1Z-21" value="AOF日志文件" style="text;html=1;align=center;verticalAlign=middle;resizable=0;points=[];autosize=1;strokeColor=none;fillColor=none;" vertex="1" parent="1">
          <mxGeometry x="375" y="448" width="91" height="26" as="geometry" />
        </mxCell>
        <mxCell id="GL-fCUlWUCzp_wdUQC1Z-24" style="rounded=0;orthogonalLoop=1;jettySize=auto;html=1;entryX=0;entryY=0.5;entryDx=0;entryDy=0;" edge="1" parent="1" source="GL-fCUlWUCzp_wdUQC1Z-22" target="GL-fCUlWUCzp_wdUQC1Z-28">
          <mxGeometry relative="1" as="geometry" />
        </mxCell>
        <mxCell id="GL-fCUlWUCzp_wdUQC1Z-25" style="rounded=0;orthogonalLoop=1;jettySize=auto;html=1;entryX=0;entryY=0.5;entryDx=0;entryDy=0;" edge="1" parent="1" source="GL-fCUlWUCzp_wdUQC1Z-22" target="GL-fCUlWUCzp_wdUQC1Z-29">
          <mxGeometry relative="1" as="geometry" />
        </mxCell>
        <mxCell id="GL-fCUlWUCzp_wdUQC1Z-22" value="主进程" style="rounded=1;whiteSpace=wrap;html=1;fillColor=#f8cecc;strokeColor=#b85450;" vertex="1" parent="1">
          <mxGeometry x="-69" y="640" width="51" height="91" as="geometry" />
        </mxCell>
        <mxCell id="GL-fCUlWUCzp_wdUQC1Z-26" value="1. 执行命令" style="text;html=1;strokeColor=none;fillColor=none;align=center;verticalAlign=middle;whiteSpace=wrap;rounded=0;" vertex="1" parent="1">
          <mxGeometry x="-14" y="633" width="89" height="30" as="geometry" />
        </mxCell>
        <mxCell id="GL-fCUlWUCzp_wdUQC1Z-27" value="2. 写日志" style="text;html=1;strokeColor=none;fillColor=none;align=center;verticalAlign=middle;whiteSpace=wrap;rounded=0;" vertex="1" parent="1">
          <mxGeometry x="-18" y="705" width="89" height="30" as="geometry" />
        </mxCell>
        <mxCell id="GL-fCUlWUCzp_wdUQC1Z-28" value="缓存数据" style="rounded=1;whiteSpace=wrap;html=1;fillColor=#dae8fc;strokeColor=#6c8ebf;" vertex="1" parent="1">
          <mxGeometry x="144" y="623.25" width="80" height="47" as="geometry" />
        </mxCell>
        <mxCell id="GL-fCUlWUCzp_wdUQC1Z-31" style="rounded=0;orthogonalLoop=1;jettySize=auto;html=1;" edge="1" parent="1" source="GL-fCUlWUCzp_wdUQC1Z-29" target="GL-fCUlWUCzp_wdUQC1Z-30">
          <mxGeometry relative="1" as="geometry" />
        </mxCell>
        <mxCell id="GL-fCUlWUCzp_wdUQC1Z-29" value="AOF缓存区" style="rounded=1;whiteSpace=wrap;html=1;fillColor=#dae8fc;strokeColor=#6c8ebf;" vertex="1" parent="1">
          <mxGeometry x="144" y="697.75" width="80" height="47" as="geometry" />
        </mxCell>
        <mxCell id="GL-fCUlWUCzp_wdUQC1Z-30" value="磁盘" style="shape=cylinder3;whiteSpace=wrap;html=1;boundedLbl=1;backgroundOutline=1;size=15;fillColor=#ffe6cc;strokeColor=#d79b00;" vertex="1" parent="1">
          <mxGeometry x="303" y="692.5" width="89" height="60" as="geometry" />
        </mxCell>
        <mxCell id="GL-fCUlWUCzp_wdUQC1Z-32" value="内存" style="text;html=1;strokeColor=none;fillColor=none;align=center;verticalAlign=middle;whiteSpace=wrap;rounded=0;fontStyle=1;fontFamily=Tahoma;" vertex="1" parent="1">
          <mxGeometry x="77" y="669" width="60" height="30" as="geometry" />
        </mxCell>
      </root>
    </mxGraphModel>
  </diagram>
</mxfile>
